# Blender v2.81 (sub 16) OBJ File: ''
# www.blender.org
mtllib wizardStick.mtl
o Cube
v 0.386985 3.157467 -0.357532
v 0.149789 -2.877231 -0.012860
v 0.309280 3.480212 0.319734
v 0.139155 -2.828638 -0.000918
v -0.120323 3.193504 -0.283740
v -0.130762 -2.726167 -0.065358
v -0.306886 3.108363 0.071975
v -0.105522 -2.941219 0.065186
v -0.119763 -2.895396 -0.015704
v -0.080418 -2.994593 0.027193
v 0.341864 3.254024 -0.244779
v 0.281442 3.394853 0.104017
v -0.281934 3.157592 -0.117547
v -0.175726 3.240514 -0.309975
v 0.148661 -3.023575 -0.011282
v 0.178398 -3.026811 -0.005271
v -0.188308 2.606604 -0.046500
v -0.159386 1.371392 -0.141063
v 0.082202 0.326541 -0.155743
v 0.141247 -1.104279 -0.126323
v 0.165615 -2.080370 -0.064347
v -0.129958 -2.167202 0.096661
v -0.158835 -1.160888 0.115824
v -0.140341 0.256569 0.180937
v -0.345369 1.439096 0.328937
v -0.490967 2.717988 0.291125
v -0.097911 2.708090 0.335313
v -0.253630 1.667444 0.279075
v 0.160579 0.295419 0.152782
v 0.209975 -1.128616 0.141584
v 0.194044 -2.087142 0.051617
v -0.489381 2.724953 -0.205376
v -0.518065 1.277516 -0.195509
v -0.173673 0.289089 -0.161201
v -0.137991 -1.105301 -0.142528
v -0.123044 -2.024767 -0.080064
v -0.171969 2.608608 0.078790
v -0.132799 1.297881 0.047539
v 0.181385 0.231917 -0.063647
v 0.239111 -1.120365 -0.044459
v 0.231884 -2.124108 -0.034976
v -0.179637 2.639042 0.183874
v -0.227021 1.585920 0.194841
v 0.201020 0.234246 0.064316
v 0.257938 -1.117814 0.059573
v 0.229737 -2.103171 0.010150
v -0.609654 2.770614 0.105938
v -0.397448 1.393151 0.206122
v -0.194836 0.275788 0.067591
v -0.129039 -1.102697 0.034250
v -0.117423 -2.127156 0.051481
v -0.577974 2.731019 -0.098990
v -0.602026 1.280477 -0.007029
v -0.183957 0.277621 -0.064509
v -0.128163 -1.090715 -0.054473
v -0.115208 -2.045702 -0.022424
v 0.065920 -2.993388 -0.030078
v -0.069443 -2.945618 -0.076207
v 0.225276 3.456904 0.245883
v -0.076136 3.300466 0.111525
v -0.000670 -3.039337 0.045535
v 0.104735 -2.992553 0.017257
v 0.099333 3.248832 -0.280813
v 0.279261 3.209300 -0.381329
v 0.082574 -3.418424 -0.016677
v -0.030318 -3.354489 -0.041065
v 0.109795 -3.395378 -0.020152
v -0.009836 -3.420891 -0.006579
v 0.085104 3.421291 -0.343698
v 0.322028 3.397977 -0.272980
v 0.016568 3.345588 -0.131785
v 0.286257 3.434810 0.032040
v -0.059467 -2.097176 -0.122136
v 0.059328 -2.123184 -0.114309
v -0.090565 -1.123767 -0.165522
v -0.000086 -1.099268 -0.149457
v -0.155675 0.366288 -0.203792
v -0.075592 0.389489 -0.209264
v -0.308462 1.366369 -0.196098
v -0.285080 1.674034 -0.134949
v -0.270595 2.699033 -0.259805
v -0.241502 2.598933 -0.090600
v 0.101676 -2.135697 0.086811
v -0.052304 -2.205828 0.112041
v 0.080940 -1.158618 0.154972
v -0.083951 -1.173004 0.162326
v 0.084712 0.310042 0.199546
v -0.029145 0.270370 0.215250
v -0.279156 1.736367 0.319357
v -0.258049 1.483493 0.380512
v -0.216634 2.715736 0.389121
v -0.233026 2.754192 0.419645
v -0.216934 2.116401 -0.042099
v -0.367475 2.116639 0.309878
v -0.246828 2.189291 0.281378
v -0.377922 1.955979 -0.095361
v -0.206244 2.094934 0.082832
v -0.212457 2.104409 0.201047
v -0.430263 2.068626 0.167131
v -0.417398 2.007363 0.008000
v -0.279497 2.226816 0.321874
v -0.279165 2.129695 0.351118
v -0.305329 2.017283 -0.167850
v -0.271576 2.141821 -0.119261
v -0.376142 2.915063 0.308358
v 0.311265 2.878163 -0.247931
v 0.128625 3.093726 0.287553
v -0.340906 2.907422 -0.198240
v 0.326025 2.905065 -0.134723
v 0.176761 2.938954 0.117980
v -0.422106 2.937685 0.027965
v -0.376587 2.912514 -0.169827
v -0.044887 2.922260 -0.208610
v 0.118116 2.861129 -0.304866
v 0.020047 3.140177 0.346758
v -0.227795 3.075326 0.368471
v 0.040429 0.840638 -0.149063
v -0.229083 0.825079 0.210117
v 0.049353 0.862939 0.186813
v -0.252345 0.763852 -0.140447
v 0.110150 0.733847 -0.023524
v 0.117195 0.748252 0.094763
v -0.326419 0.817108 0.103055
v -0.291730 0.743111 -0.027383
v -0.016135 0.898565 0.229358
v -0.088318 0.871144 0.245240
v -0.216630 0.854533 -0.192816
v -0.092412 0.904094 -0.213612
v 0.103838 -0.313861 -0.143815
v -0.132571 -0.346331 0.139039
v 0.206229 -0.344279 0.148723
v -0.153006 -0.320764 -0.155082
v 0.219569 -0.373750 -0.054843
v 0.269148 -0.353554 0.060313
v -0.144679 -0.310120 0.041293
v -0.149928 -0.317193 -0.081121
v 0.091330 -0.360874 0.183770
v -0.047702 -0.357671 0.197040
v -0.137215 -0.284019 -0.184340
v -0.032486 -0.257848 -0.195746
vt 0.791667 0.665148
vt 0.875000 0.665148
vt 0.875000 0.750000
vt 0.791667 0.750000
vt 0.604167 0.916667
vt 0.625000 0.916667
vt 0.625000 1.000000
vt 0.604167 1.000000
vt 0.604167 0.168185
vt 0.625000 0.168185
vt 0.625000 0.250000
vt 0.604167 0.250000
vt 0.291667 0.665148
vt 0.375000 0.665148
vt 0.375000 0.750000
vt 0.291667 0.750000
vt 0.604167 0.665148
vt 0.625000 0.665148
vt 0.625000 0.750000
vt 0.604167 0.750000
vt 0.604167 0.416667
vt 0.625000 0.416667
vt 0.625000 0.500000
vt 0.604167 0.500000
vt 0.625000 0.581815
vt 0.604167 0.581815
vt 0.291667 0.500000
vt 0.375000 0.500000
vt 0.375000 0.581815
vt 0.291667 0.581815
vt 0.604167 0.000000
vt 0.625000 0.000000
vt 0.625000 0.084852
vt 0.604167 0.084852
vt 0.791667 0.500000
vt 0.875000 0.500000
vt 0.875000 0.581815
vt 0.791667 0.581815
vt 0.375000 0.084852
vt 0.416667 0.084852
vt 0.416667 0.168185
vt 0.375000 0.168185
vt 0.458333 0.084852
vt 0.458333 0.168185
vt 0.479167 0.084852
vt 0.500000 0.084852
vt 0.500000 0.168185
vt 0.479167 0.168185
vt 0.520833 0.084852
vt 0.541667 0.084852
vt 0.541667 0.168185
vt 0.520833 0.168185
vt 0.562500 0.084852
vt 0.583333 0.084852
vt 0.583333 0.168185
vt 0.562500 0.168185
vt 0.375000 0.000000
vt 0.416667 0.000000
vt 0.458333 0.000000
vt 0.479167 0.000000
vt 0.500000 0.000000
vt 0.520833 0.000000
vt 0.541667 0.000000
vt 0.562500 0.000000
vt 0.583333 0.000000
vt 0.416667 0.581815
vt 0.416667 0.665148
vt 0.458333 0.581815
vt 0.458333 0.665148
vt 0.479167 0.581815
vt 0.500000 0.581815
vt 0.500000 0.665148
vt 0.479167 0.665148
vt 0.520833 0.581815
vt 0.541667 0.581815
vt 0.541667 0.665148
vt 0.520833 0.665148
vt 0.562500 0.581815
vt 0.583333 0.581815
vt 0.583333 0.665148
vt 0.562500 0.665148
vt 0.416667 0.500000
vt 0.458333 0.500000
vt 0.479167 0.500000
vt 0.500000 0.500000
vt 0.520833 0.500000
vt 0.541667 0.500000
vt 0.562500 0.500000
vt 0.583333 0.500000
vt 0.375000 0.416667
vt 0.416667 0.416667
vt 0.458333 0.416667
vt 0.479167 0.416667
vt 0.500000 0.416667
vt 0.520833 0.416667
vt 0.541667 0.416667
vt 0.562500 0.416667
vt 0.583333 0.416667
vt 0.416667 0.750000
vt 0.458333 0.750000
vt 0.500000 0.750000
vt 0.479167 0.750000
vt 0.541667 0.750000
vt 0.520833 0.750000
vt 0.583333 0.750000
vt 0.562500 0.750000
vt 0.416667 0.250000
vt 0.375000 0.250000
vt 0.458333 0.250000
vt 0.500000 0.250000
vt 0.479167 0.250000
vt 0.541667 0.250000
vt 0.520833 0.250000
vt 0.583333 0.250000
vt 0.562500 0.250000
vt 0.375000 0.916667
vt 0.416667 0.916667
vt 0.416667 1.000000
vt 0.375000 1.000000
vt 0.458333 0.916667
vt 0.458333 1.000000
vt 0.479167 0.916667
vt 0.500000 0.916667
vt 0.500000 1.000000
vt 0.479167 1.000000
vt 0.520833 0.916667
vt 0.541667 0.916667
vt 0.541667 1.000000
vt 0.520833 1.000000
vt 0.562500 0.916667
vt 0.583333 0.916667
vt 0.583333 1.000000
vt 0.562500 1.000000
vt 0.583333 0.833333
vt 0.562500 0.833333
vt 0.541667 0.833333
vt 0.520833 0.833333
vt 0.500000 0.833333
vt 0.479167 0.833333
vt 0.458333 0.833333
vt 0.416667 0.833333
vt 0.375000 0.833333
vt 0.583333 0.333333
vt 0.562500 0.333333
vt 0.541667 0.333333
vt 0.520833 0.333333
vt 0.500000 0.333333
vt 0.479167 0.333333
vt 0.458333 0.333333
vt 0.416667 0.333333
vt 0.375000 0.333333
vt 0.708333 0.581815
vt 0.708333 0.665148
vt 0.708333 0.500000
vt 0.125000 0.581815
vt 0.208333 0.581815
vt 0.208333 0.665148
vt 0.125000 0.665148
vt 0.125000 0.500000
vt 0.208333 0.500000
vt 0.625000 0.333333
vt 0.604167 0.333333
vt 0.208333 0.750000
vt 0.125000 0.750000
vt 0.625000 0.833333
vt 0.604167 0.833333
vt 0.708333 0.750000
vn -0.5838 0.8117 0.0182
vn -0.6932 0.6723 0.2598
vn -0.1609 -0.2413 -0.9570
vn 0.5160 -0.0557 0.8548
vn 0.9166 -0.3158 0.2451
vn 0.2051 -0.3486 -0.9146
vn 0.9810 -0.0813 0.1762
vn 0.9328 -0.0857 0.3501
vn 0.2099 -0.0192 -0.9775
vn -0.8116 0.1281 0.5700
vn -0.8369 0.5342 0.1191
vn -0.8736 0.3973 -0.2809
vn 0.1093 -0.3440 -0.9326
vn -0.5425 0.8349 0.0931
vn -0.9617 -0.0210 0.2733
vn -0.9996 -0.0131 -0.0265
vn -0.9973 -0.0704 -0.0206
vn -0.7663 -0.3239 0.5549
vn -0.9699 -0.2375 -0.0529
vn -0.9121 -0.0202 -0.4095
vn -0.9439 -0.0185 -0.3296
vn -0.9564 -0.0630 0.2852
vn -0.7904 -0.2303 0.5677
vn -0.8630 -0.1714 0.4752
vn 0.7577 -0.0530 0.6504
vn 0.9940 -0.0155 -0.1087
vn 0.9563 0.0841 -0.2800
vn 0.9041 0.3978 -0.1562
vn 0.9954 -0.0622 0.0730
vn 0.2601 -0.0567 -0.9639
vn 0.5545 -0.0252 -0.8318
vn 0.6520 0.0187 -0.7580
vn 0.9234 0.3782 -0.0660
vn 0.9917 -0.0631 -0.1120
vn 0.3887 -0.0769 -0.9182
vn 0.2878 -0.0344 -0.9571
vn 0.3369 -0.0017 -0.9415
vn 0.4782 0.2013 -0.8549
vn 0.7448 -0.0291 -0.6666
vn 0.5601 -0.0825 0.8243
vn 0.8253 -0.0590 0.5616
vn 0.8740 0.0779 0.4797
vn 0.9294 0.3541 0.1038
vn 0.9819 -0.1663 -0.0902
vn -0.9816 0.0104 0.1907
vn -0.9927 -0.0087 0.1200
vn -0.9980 -0.0449 -0.0442
vn -0.8132 -0.4576 -0.3596
vn -0.8579 -0.2236 -0.4626
vn -0.0230 -0.0619 0.9978
vn -0.3878 -0.0429 0.9208
vn -0.4252 -0.0404 0.9042
vn -0.2546 -0.2528 0.9334
vn -0.4320 -0.0638 0.8996
vn 0.4735 -0.2026 0.8572
vn 0.9818 -0.1146 0.1514
vn 0.7755 0.2008 0.5986
vn 0.6646 0.0830 0.7426
vn 0.3941 0.0018 0.9191
vn 0.1176 -0.0271 0.9927
vn 0.2401 -0.0784 0.9676
vn 0.1160 -0.0554 0.9917
vn 0.5003 -0.0821 0.8619
vn 0.2319 -0.0706 0.9702
vn -0.3799 -0.1472 -0.9132
vn 0.9605 -0.0696 -0.2693
vn -0.1368 -0.1037 -0.9852
vn 0.0847 0.0772 -0.9934
vn -0.8805 -0.0369 -0.4726
vn -0.0832 -0.0293 -0.9961
vn -0.5409 -0.0601 -0.8389
vn 0.1131 -0.0339 -0.9930
vn -0.4483 -0.0298 -0.8934
vn 0.1863 -0.0746 -0.9797
vn 0.9845 0.1388 0.1071
vn -0.1490 0.9879 0.0442
vn 0.7858 0.3830 -0.4857
vn -0.0514 0.1287 -0.9903
vn -0.9302 -0.1891 0.3144
vn -0.0679 -0.6287 -0.7746
vn -0.8183 -0.1522 -0.5542
vn 0.2567 -0.0390 -0.9657
vn 0.0216 -0.2613 -0.9650
vn -0.4908 0.0302 -0.8708
vn -0.3263 -0.2032 0.9232
vn 0.2163 -0.1118 0.9699
vn -0.0597 0.1295 0.9898
vn -0.3990 0.6736 0.6221
vn 0.4988 0.8491 -0.1739
vn -0.3610 0.9296 -0.0745
vn 0.8775 0.0058 -0.4796
vn -0.3103 0.1245 -0.9425
vn 0.9840 0.0144 -0.1777
vn 0.8063 -0.0080 0.5914
vn -0.4715 0.0169 0.8817
vn -0.8781 0.2370 -0.4156
vn 0.9300 -0.0221 0.3670
vn 0.5157 0.0992 -0.8510
vn 0.9917 0.0921 -0.0900
vn 0.9462 0.0322 0.3219
vn -0.9151 -0.0199 0.4028
vn -0.9032 0.1049 0.4161
vn 0.1876 0.0621 0.9803
vn 0.4147 -0.1370 0.8996
vn 0.0452 -0.3666 -0.9293
vn -0.1159 0.2453 -0.9625
vn -0.6973 0.6747 -0.2422
vn -0.6923 0.6327 0.3471
vn 0.6093 -0.6897 0.3913
vn 0.5064 -0.8614 0.0384
vn 0.2813 -0.8291 -0.4832
vn 0.7461 -0.5803 0.3265
vn -0.6206 0.4893 -0.6127
vn -0.4807 0.1677 0.8607
vn -0.1264 -0.0032 -0.9920
vn -0.7863 -0.0939 -0.6107
vn 0.1763 -0.0258 0.9840
vn 0.5470 0.0542 0.8353
vn -0.2471 -0.0801 0.9657
vn -0.9521 -0.1733 -0.2521
vn 0.9030 0.1386 0.4066
vn 0.3852 0.0240 -0.9225
vn 0.8343 0.1176 -0.5386
vn 0.9805 0.1578 -0.1170
vn -0.8126 -0.1933 0.5499
vn -0.9690 -0.2227 -0.1070
vn 0.0335 -0.0371 -0.9988
vn -0.6299 -0.0389 -0.7757
vn 0.0692 -0.0412 0.9968
vn 0.1989 -0.0231 0.9797
vn -0.5483 -0.0087 0.8362
vn -0.9964 -0.0215 0.0818
vn 0.8382 -0.0068 0.5453
vn 0.2554 -0.0268 -0.9665
vn 0.6265 0.0091 -0.7793
vn 0.9545 0.0034 -0.2982
vn -0.9956 0.0083 -0.0938
vn -0.9995 -0.0236 0.0202
usemtl Material
s off
f 71/1/1 13/2/1 7/3/1 60/4/1
f 116/5/2 60/6/2 7/7/2 105/8/2
f 112/9/3 14/10/3 5/11/3 108/12/3
f 67/13/4 15/14/4 4/15/4 62/16/4
f 110/17/5 12/18/5 3/19/5 107/20/5
f 114/21/6 64/22/6 1/23/6 106/24/6
f 106/24/7 1/23/7 11/25/7 109/26/7
f 109/26/8 11/25/8 12/18/8 110/17/8
f 57/27/9 2/28/9 16/29/9 65/30/9
f 65/30/10 16/29/10 15/14/10 67/13/10
f 105/31/11 7/32/11 13/33/11 111/34/11
f 111/34/12 13/33/12 14/10/12 112/9/12
f 63/35/13 5/36/13 14/37/13 69/38/13
f 69/38/14 14/37/14 13/2/14 71/1/14
f 10/39/15 51/40/15 56/41/15 9/42/15
f 51/40/16 50/43/16 55/44/16 56/41/16
f 135/45/17 49/46/17 54/47/17 136/48/17
f 123/49/18 48/50/18 53/51/18 124/52/18
f 99/53/19 47/54/19 52/55/19 100/56/19
f 8/57/20 22/58/20 51/40/20 10/39/20
f 22/58/21 23/59/21 50/43/21 51/40/21
f 130/60/22 24/61/22 49/46/22 135/45/22
f 118/62/23 25/63/23 48/50/23 123/49/23
f 94/64/24 26/65/24 47/54/24 99/53/24
f 16/29/25 41/66/25 46/67/25 15/14/25
f 41/66/26 40/68/26 45/69/26 46/67/26
f 133/70/27 39/71/27 44/72/27 134/73/27
f 121/74/28 38/75/28 43/76/28 122/77/28
f 97/78/29 37/79/29 42/80/29 98/81/29
f 2/28/30 21/82/30 41/66/30 16/29/30
f 21/82/31 20/83/31 40/68/31 41/66/31
f 129/84/32 19/85/32 39/71/32 133/70/32
f 117/86/33 18/87/33 38/75/33 121/74/33
f 93/88/34 17/89/34 37/79/34 97/78/34
f 57/90/35 74/91/35 21/82/35 2/28/35
f 74/91/36 76/92/36 20/83/36 21/82/36
f 140/93/37 78/94/37 19/85/37 129/84/37
f 128/95/38 80/96/38 18/87/38 117/86/38
f 104/97/39 82/98/39 17/89/39 93/88/39
f 15/14/40 46/67/40 31/99/40 4/15/40
f 46/67/41 45/69/41 30/100/41 31/99/41
f 134/73/42 44/72/42 29/101/42 131/102/42
f 122/77/43 43/76/43 28/103/43 119/104/43
f 98/81/44 42/80/44 27/105/44 95/106/44
f 9/42/45 56/41/45 36/107/45 6/108/45
f 56/41/46 55/44/46 35/109/46 36/107/46
f 136/48/47 54/47/47 34/110/47 132/111/47
f 124/52/48 53/51/48 33/112/48 120/113/48
f 100/56/49 52/55/49 32/114/49 96/115/49
f 61/116/50 84/117/50 22/118/50 8/119/50
f 84/117/51 86/120/51 23/121/51 22/118/51
f 138/122/52 88/123/52 24/124/52 130/125/52
f 126/126/53 90/127/53 25/128/53 118/129/53
f 102/130/54 92/131/54 26/132/54 94/133/54
f 95/106/55 27/105/55 91/134/55 101/135/55
f 101/135/56 91/134/56 92/131/56 102/130/56
f 119/104/57 28/103/57 89/136/57 125/137/57
f 125/137/58 89/136/58 90/127/58 126/126/58
f 131/102/59 29/101/59 87/138/59 137/139/59
f 137/139/60 87/138/60 88/123/60 138/122/60
f 31/99/61 30/100/61 85/140/61 83/141/61
f 83/141/62 85/140/62 86/120/62 84/117/62
f 4/15/63 31/99/63 83/141/63 62/142/63
f 62/142/64 83/141/64 84/117/64 61/116/64
f 96/115/65 32/114/65 81/143/65 103/144/65
f 103/144/66 81/143/66 82/98/66 104/97/66
f 120/113/67 33/112/67 79/145/67 127/146/67
f 127/146/68 79/145/68 80/96/68 128/95/68
f 132/111/69 34/110/69 77/147/69 139/148/69
f 139/148/70 77/147/70 78/94/70 140/93/70
f 36/107/71 35/109/71 75/149/71 73/150/71
f 73/150/72 75/149/72 76/92/72 74/91/72
f 6/108/73 36/107/73 73/150/73 58/151/73
f 58/151/74 73/150/74 74/91/74 57/90/74
f 11/25/75 70/152/75 72/153/75 12/18/75
f 70/152/76 69/38/76 71/1/76 72/153/76
f 1/23/77 64/154/77 70/152/77 11/25/77
f 64/154/78 63/35/78 69/38/78 70/152/78
f 9/155/79 66/156/79 68/157/79 10/158/79
f 66/156/80 65/30/80 67/13/80 68/157/80
f 6/159/81 58/160/81 66/156/81 9/155/81
f 58/160/82 57/27/82 65/30/82 66/156/82
f 108/12/83 5/11/83 63/161/83 113/162/83
f 113/162/84 63/161/84 64/22/84 114/21/84
f 10/158/85 68/157/85 61/163/85 8/164/85
f 68/157/86 67/13/86 62/16/86 61/163/86
f 107/20/87 3/19/87 59/165/87 115/166/87
f 115/166/88 59/165/88 60/6/88 116/5/88
f 12/18/89 72/153/89 59/167/89 3/19/89
f 72/153/90 71/1/90 60/4/90 59/167/90
f 79/145/91 103/144/91 104/97/91 80/96/91
f 33/112/92 96/115/92 103/144/92 79/145/92
f 89/136/93 101/135/93 102/130/93 90/127/93
f 28/103/94 95/106/94 101/135/94 89/136/94
f 90/127/95 102/130/95 94/133/95 25/128/95
f 53/51/96 100/56/96 96/115/96 33/112/96
f 43/76/97 98/81/97 95/106/97 28/103/97
f 80/96/98 104/97/98 93/88/98 18/87/98
f 18/87/99 93/88/99 97/78/99 38/75/99
f 38/75/100 97/78/100 98/81/100 43/76/100
f 25/63/101 94/64/101 99/53/101 48/50/101
f 48/50/102 99/53/102 100/56/102 53/51/102
f 91/134/103 115/166/103 116/5/103 92/131/103
f 27/105/104 107/20/104 115/166/104 91/134/104
f 81/143/105 113/162/105 114/21/105 82/98/105
f 32/114/106 108/12/106 113/162/106 81/143/106
f 47/54/107 111/34/107 112/9/107 52/55/107
f 26/65/108 105/31/108 111/34/108 47/54/108
f 37/79/109 109/26/109 110/17/109 42/80/109
f 17/89/110 106/24/110 109/26/110 37/79/110
f 82/98/111 114/21/111 106/24/111 17/89/111
f 42/80/112 110/17/112 107/20/112 27/105/112
f 52/55/113 112/9/113 108/12/113 32/114/113
f 92/131/114 116/5/114 105/8/114 26/132/114
f 77/147/115 127/146/115 128/95/115 78/94/115
f 34/110/116 120/113/116 127/146/116 77/147/116
f 87/138/117 125/137/117 126/126/117 88/123/117
f 29/101/118 119/104/118 125/137/118 87/138/118
f 88/123/119 126/126/119 118/129/119 24/124/119
f 54/47/120 124/52/120 120/113/120 34/110/120
f 44/72/121 122/77/121 119/104/121 29/101/121
f 78/94/122 128/95/122 117/86/122 19/85/122
f 19/85/123 117/86/123 121/74/123 39/71/123
f 39/71/124 121/74/124 122/77/124 44/72/124
f 24/61/125 118/62/125 123/49/125 49/46/125
f 49/46/126 123/49/126 124/52/126 54/47/126
f 75/149/127 139/148/127 140/93/127 76/92/127
f 35/109/128 132/111/128 139/148/128 75/149/128
f 85/140/129 137/139/129 138/122/129 86/120/129
f 30/100/130 131/102/130 137/139/130 85/140/130
f 86/120/131 138/122/131 130/125/131 23/121/131
f 55/44/132 136/48/132 132/111/132 35/109/132
f 45/69/133 134/73/133 131/102/133 30/100/133
f 76/92/134 140/93/134 129/84/134 20/83/134
f 20/83/135 129/84/135 133/70/135 40/68/135
f 40/68/136 133/70/136 134/73/136 45/69/136
f 23/59/137 130/60/137 135/45/137 50/43/137
f 50/43/138 135/45/138 136/48/138 55/44/138
